<svg xmlns="http://www.w3.org/2000/svg" width="24" height="24" fill="currentColor" viewBox="0 0 24 24"><path d="M11.984.105C5.434.105.094 5.45.094 12c0 6.578 5.34 11.922 11.922 11.89 6.55 0 11.89-5.312 11.89-11.89 0-6.55-5.34-11.895-11.922-11.895m-5.722 4.16c.218 0 .437.028.633.083.19.054.328.136.496.273l-.414.469a1 1 0 0 0-.278-.192c-.11-.054-.246-.054-.41-.054-.14 0-.25.027-.36.054-.109.055-.19.11-.277.192a1.1 1.1 0 0 0-.191.305c-.055.109-.055.246-.055.355 0 .137.028.25.055.36.055.109.11.218.191.3.086.082.168.14.278.195s.218.055.36.055c.136 0 .245-.027.355-.055.082-.027.168-.054.222-.082v-.468h-.496v-.551h1.074V6.96c-.195.086-.36.168-.55.195-.196.028-.387.055-.606.055-.223 0-.414-.027-.605-.11a1.1 1.1 0 0 1-.47-.304c-.136-.137-.25-.274-.304-.469a1.3 1.3 0 0 1-.137-.578c0-.219.028-.437.11-.605.082-.192.195-.329.305-.47.136-.136.3-.218.464-.3.196-.055.387-.11.61-.11m13.597 0c.082 0 .164.028.22.055.085.028.112.082.167.164s.055.137.055.22a.5.5 0 0 1-.055.222.25.25 0 0 1-.168.164c-.082.027-.137.055-.219.055a.5.5 0 0 1-.218-.055c-.086-.027-.11-.082-.168-.164a.5.5 0 0 1-.055-.223c0-.082.027-.164.055-.219.027-.054.082-.136.168-.164.082-.027.136-.054.218-.054m-1.68.027c.165 0 .305.027.47.055.136.054.273.109.386.218l-.414.442c-.055-.055-.11-.11-.195-.137-.082-.027-.164-.055-.246-.055-.055 0-.082-.003-.137.028-.055 0-.082.027-.137.054a.3.3 0 0 0-.113.082.2.2 0 0 0-.055.137c0 .082.028.164.114.223.054.055.136.082.246.11s.191.054.304.081c.11.028.22.082.301.137.082.055.164.137.246.219.059.086.086.222.086.386a.9.9 0 0 1-.086.415.75.75 0 0 1-.219.273.9.9 0 0 1-.328.168c-.168.082-.304.082-.441.082q-.292 0-.496-.082c-.137-.059-.305-.14-.414-.25l.414-.469c.055.082.137.14.246.195.11.055.195.082.305.082.054 0 .109 0 .164-.027.054 0 .11-.027.136-.055a.2.2 0 0 0 .11-.113c.031-.027.031-.082.031-.137a.25.25 0 0 0-.11-.218c-.058-.055-.14-.082-.25-.137-.109-.027-.19-.082-.331-.113a1 1 0 0 1-.301-.137c-.082-.055-.164-.137-.246-.219-.059-.082-.086-.222-.086-.36 0-.136.027-.273.086-.382a.6.6 0 0 1 .246-.277.9.9 0 0 1 .328-.164c.14-.028.277-.055.387-.055m1.68.027a.5.5 0 0 0-.192.055.34.34 0 0 0-.14.137.4.4 0 0 0-.055.191c0 .086.027.14.054.195.028.055.086.11.141.137s.11.055.191.055a.4.4 0 0 0 .192-.055.34.34 0 0 0 .14-.137c.028-.054.055-.109.055-.195a.5.5 0 0 0-.055-.191.34.34 0 0 0-.14-.137.4.4 0 0 0-.192-.055m-11.836.028h1.07c.141 0 .278 0 .415.054a1 1 0 0 1 .332.137.63.63 0 0 1 .219.25q.082.164.082.41 0 .293-.164.496a.65.65 0 0 1-.415.246h-.054l.715 1.188h-.715v.027L8.93 6.027h-.328v1.13h-.579Zm3.633 0h.496l1.211 2.78h-.66v.028l-.25-.605h-1.129l-.219.605h-.66Zm2.063 0h.578v2.78h-.578Zm1.297 0h.605v2.257h1.129v.551h-1.734Zm4.68.082h.163c.055 0 .11 0 .137.027s.055.055.055.11c0 .054-.028.081-.082.109.027 0 .054.027.054.058 0 .028.028.055.028.082v.11h-.11v-.11c0-.027 0-.054-.027-.054s-.027-.028-.082-.028h-.055v.22h-.082Zm.081.082v.164h.082c.028 0 .055 0 .082-.028.028 0 .028-.027.028-.054 0-.028 0-.055-.028-.055-.027 0-.054-.027-.082-.027Zm-11.175.332v.687h.55c.055 0 .11-.027.164-.027.055-.027.11-.055.137-.11.027-.058.055-.113.055-.195a.4.4 0 0 0-.055-.191c-.027-.055-.082-.082-.11-.11-.054-.027-.109-.027-.163-.054Zm3.3.273-.382.938h.742Zm-.027 3.196c5.426 0 6.746.027 7.047.027.058 0 .086.055.14.082-.027.273-.027.66-.277 1.543-.191.715-.633 1.375-1.074 1.926-.246.3-.852.879-1.156 1.129-.301.218-.715.496-1.016.66-.25.136-.883.355-1.074.468-.277.137-.688.438-.91.797-.164.278-.328.606-.383.856-.059.136-.059.355-.059.605 0 .606.114 1.375.305 1.926.246.605.36.797.633 1.43.11.25.219.523.273.633 0 .027.004.085-.027.14-.082.11-.219.328-.492.465-.442.25-1.434.332-1.903.332-.464 0-1.43-.082-1.898-.332-.274-.164-.414-.355-.496-.465-.055-.027-.055-.082-.028-.14.055-.11.165-.356.278-.633.273-.606.41-.825.633-1.43.191-.55.3-1.32.3-1.926 0-.25-.027-.468-.054-.605-.055-.223-.219-.578-.383-.856-.25-.36-.637-.66-.91-.797-.192-.082-.828-.332-1.074-.468a6.7 6.7 0 0 1-1.02-.66c-.3-.25-.906-.829-1.156-1.13-.438-.55-.88-1.21-1.074-1.925-.247-.883-.247-1.27-.274-1.543 0-.027.027-.082.082-.082.305 0 1.625-.027 7.047-.027M4.938 10.98c.027 0 .082.028.082.055.523 1.406 1.902 2.563 3.746 3.195a.085.085 0 0 1 0 .165c-.164.082-.414.164-.496.218a1.6 1.6 0 0 0-.551.496c-.11.168-.192.387-.246.524-.028.082-.028.222-.028.387 0 .359.055.851.192 1.183.136.387.218.496.386.883.082.164.137.328.165.383v.082c-.055.054-.137.195-.305.277-.274.164-.88.219-1.184.219-.3 0-.879-.055-1.183-.219-.164-.082-.246-.223-.301-.277q-.04-.042 0-.082c.027-.082.11-.219.164-.387.164-.383.246-.492.387-.879.136-.332.191-.824.191-1.183 0-.165 0-.305-.027-.387-.028-.137-.137-.356-.22-.524a1.6 1.6 0 0 0-.55-.496c-.11-.054-.523-.218-.66-.3a8 8 0 0 1-.637-.415c-.191-.136-.547-.523-.715-.687-.273-.36-.55-.742-.66-1.184-.164-.55-.136-.77-.164-.964 0-.028.028-.055.055-.055.137 0 .687-.028 2.559-.028m13.957 0c1.875 0 2.425.028 2.562.028.027 0 .027.027.055.082-.028.195 0 .414-.164.965-.114.441-.387.824-.664 1.183-.164.164-.52.551-.715.688a8 8 0 0 1-.633.414c-.137.082-.55.246-.66.305a1.5 1.5 0 0 0-.551.492c-.082.168-.191.386-.219.523-.027.082-.027.223-.027.387 0 .36.055.851.191 1.183.137.387.22.497.387.883.055.164.137.301.164.383q.04.041 0 .082c-.055.055-.137.195-.305.277-.3.165-.878.22-1.183.22-.301 0-.906-.055-1.184-.22-.164-.082-.246-.222-.3-.277v-.082c.027-.055.081-.219.164-.383.164-.386.25-.496.386-.883.137-.332.192-.824.192-1.183 0-.164 0-.305-.028-.387-.054-.137-.136-.355-.246-.523a1.56 1.56 0 0 0-.55-.492c-.087-.06-.333-.141-.497-.223a.09.09 0 0 1-.062-.082c0-.04.027-.07.062-.082 1.817-.633 3.192-1.79 3.742-3.223 0-.027.055-.055.083-.055m0 0"/></svg>
